<svg xmlns="http://www.w3.org/2000/svg" width="100%" height="100%" viewBox="450 240 1000 1000">
  <g data-padding="20">
    <g transform="translate(-1121.429 -836.909) scale(2.06578)">
      <rect width="407.284" height="554.83" x="754.474" y="368.068" fill="none" rx="0" ry="0" transform="matrix(.78 0 0 .78 269.57 303.92)" />
      <path fill="#3dcfb6" d="M882.27 927.987v-269.57h62.39q31.58 0 47.36 16.95 15.79 16.94 15.79 49.68v26.57q0 32.73-15.79 49.67-15.78 16.95-47.36 16.95h-20.03v109.75Zm42.36-148.26h20.03q10.4 0 15.59-5.78 5.2-5.77 5.2-19.64v-31.96q0-13.86-5.2-19.64-5.19-5.78-15.59-5.78h-20.03Zm106.3 148.26v-269.57h63.92q32.74 0 47.76 15.22 15.01 15.21 15.01 46.78v10.79q0 20.79-6.73 33.89-6.74 13.09-20.61 18.86v.77q31.58 10.79 31.58 56.23v23.1q0 31.2-16.37 47.56-16.36 16.37-47.94 16.37Zm42.36-159.81h16.56q12.71 0 19.06-6.55t6.35-21.95v-15.02q0-14.63-5.19-21.18-5.2-6.55-16.37-6.55h-20.41Zm0 121.3h24.26q11.17 0 16.56-5.97t5.39-20.6v-23.49q0-18.49-6.35-25.61-6.36-7.12-20.99-7.12h-18.87Z" />
      <path fill="#fff" d="M871.76 935.037v-269.57h62.39q31.57 0 47.36 16.95 15.79 16.94 15.79 49.67v26.57q0 32.74-15.79 49.68-15.79 16.95-47.36 16.95h-20.03v109.75Zm42.36-148.26h20.03q10.39 0 15.59-5.78t5.2-19.64v-31.96q0-13.87-5.2-19.64-5.2-5.78-15.59-5.78h-20.03Zm106.29 148.26v-269.57h63.92q32.74 0 47.75 15.21 15.02 15.21 15.02 46.79v10.78q0 20.8-6.74 33.89-6.74 13.1-20.6 18.87v.77q31.58 10.79 31.58 56.23v23.1q0 31.19-16.37 47.56-16.36 16.37-47.94 16.37Zm42.36-159.82h16.56q12.7 0 19.06-6.54 6.35-6.55 6.35-21.95v-15.02q0-14.64-5.2-21.18-5.2-6.55-16.36-6.55h-20.41Zm0 121.31h24.26q11.17 0 16.56-5.97t5.39-20.6v-23.49q0-18.49-6.36-25.61-6.35-7.13-20.98-7.13h-18.87Z" />
      <path fill="#3dcfb6" d="M1085.91 959.657h24.08v55.24H906.17v-55.24h24.08v25.57h155.66Z" />
      <path fill="#3dcfb6" d="M848.2 679.767h-54.6q0-42.29 6.88-65.24 6.89-22.95 21.87-31.77t38.66-8.82h76.11q15.71 0 25.13-7.13t13.77-20.9 4.35-33.83h57.75q0 20.06 4.23 33.83t13.77 20.9q9.55 7.13 25.01 7.13h76.84q23.68 0 38.54 8.82t21.74 31.77q6.89 22.95 6.89 65.24h-54.37q-.24-12.81-3.02-22.35-2.77-9.55-10.02-14.62t-21.03-5.07h-72.24q-22.71 0-36.12-14.5t-17.52-42.04h-2.9q-3.87 27.54-17.28 42.04t-36.12 14.5h-72.25q-13.77 0-21.14 5.07t-10.03 14.62q-2.65 9.54-2.9 22.35" />
    </g>
  </g>
</svg>
