<svg width="11" height="11" viewBox="0 0 11 11" fill="none" xmlns="http://www.w3.org/2000/svg">
<path d="M9.19835 1.85857L0.921055 10.1279C0.805638 10.2432 0.681471 10.2961 0.548555 10.2865C0.415499 10.2769 0.291263 10.2144 0.175846 10.099C0.0605686 9.98357 0.00292969 9.85725 0.00292969 9.72003C0.00292969 9.58281 0.0605686 9.45649 0.175846 9.34107L8.42439 1.08462H1.24001C1.08654 1.08462 0.95786 1.03309 0.853971 0.930032C0.750221 0.826977 0.698346 0.699338 0.698346 0.547115C0.698346 0.394754 0.750221 0.265726 0.853971 0.160032C0.95786 0.0541983 1.08654 0.00128174 1.24001 0.00128174H9.61168C9.80154 0.00128174 9.96064 0.0654482 10.089 0.193782C10.2174 0.322254 10.2817 0.481352 10.2817 0.671074V9.04295C10.2817 9.19642 10.2302 9.32503 10.1271 9.42878C10.024 9.53267 9.8964 9.58462 9.74418 9.58462C9.59182 9.58462 9.46272 9.53267 9.35689 9.42878C9.25119 9.32503 9.19835 9.19642 9.19835 9.04295V1.85857Z" fill="#3DCFB6"/>
</svg>
