<svg width="29" height="28" viewBox="0 0 29 28" fill="none" xmlns="http://www.w3.org/2000/svg">
<path d="M12.9264 15.3559L10.6597 13.0336C10.445 12.804 10.1803 12.6893 9.86537 12.6893C9.55048 12.6893 9.27459 12.8004 9.0377 13.0226C8.80792 13.2521 8.69303 13.5261 8.69303 13.8446C8.69303 14.1633 8.80792 14.4374 9.0377 14.6669L12.1487 17.7559C12.3709 17.9781 12.6301 18.0893 12.9264 18.0893C13.2228 18.0893 13.4821 17.9781 13.7044 17.7559L19.6597 11.8226C19.8819 11.6004 19.9913 11.3337 19.9877 11.0226C19.9839 10.7115 19.8673 10.4448 19.6377 10.2226C19.4155 10.015 19.1506 9.91314 18.843 9.91692C18.5357 9.9207 18.2784 10.0263 18.071 10.2336L12.9264 15.3559ZM9.3487 27.1336L7.32637 23.6893L3.3487 22.8669C3.0747 22.8151 2.84881 22.6688 2.67103 22.4279C2.49326 22.1873 2.42659 21.9299 2.47103 21.6559L2.90437 17.7336L0.315367 14.7336C0.1227 14.5336 0.0263672 14.2891 0.0263672 14.0003C0.0263672 13.7114 0.1227 13.4669 0.315367 13.2669L2.90437 10.2893L2.47103 6.36692C2.42659 6.09292 2.49326 5.83548 2.67103 5.59459C2.84881 5.35392 3.0747 5.2077 3.3487 5.15592L7.32637 4.33359L9.3487 0.866922C9.49692 0.622478 9.70437 0.453923 9.97103 0.361256C10.2377 0.268811 10.5044 0.281811 10.771 0.400255L14.3487 2.02259L17.9264 0.400255C18.193 0.281811 18.4597 0.265144 18.7264 0.350255C18.993 0.435366 19.2005 0.600145 19.3487 0.844589L21.393 4.33359L25.3487 5.15592C25.6227 5.2077 25.8486 5.35392 26.0264 5.59459C26.2041 5.83548 26.2708 6.09292 26.2264 6.36692L25.793 10.2893L28.382 13.2669C28.5747 13.4669 28.671 13.7114 28.671 14.0003C28.671 14.2891 28.5747 14.5336 28.382 14.7336L25.793 17.7336L26.2264 21.6559C26.2708 21.9299 26.2041 22.1873 26.0264 22.4279C25.8486 22.6688 25.6227 22.8151 25.3487 22.8669L21.393 23.6893L19.3487 27.1559C19.2005 27.4004 18.993 27.5651 18.7264 27.6503C18.4597 27.7354 18.193 27.7187 17.9264 27.6003L14.3487 25.9779L10.771 27.6003C10.5044 27.7187 10.2377 27.7317 9.97103 27.6393C9.70437 27.5466 9.49692 27.378 9.3487 27.1336Z" fill="#3DCFB6"/>
</svg>
